:FULLY-SPECIFIED
:FORCE-ALL-JOINTS-BE-3DOF
:DEGREES
510
root 5.92724 16.1739 -5.21864 -169.427 78.0193 -174.39
lfemur -25.8297 -14.994 -22.3693
ltibia 55.1281 -0 0
lfoot -26.6833 -3.96747 -0.0838427
ltoes 7.06513 -0 0
rfemur -56.4991 5.88003 4.04186
rtibia 59.9168 -0 0
rfoot 10.2379 9.42513 0.0103752
rtoes -21.0663 0 0
lowerback 8.81876 0.200363 -0.353463
upperback 1.78153 0.513266 3.20666
thorax -3.12398 0.327389 3.47848
lowerneck -8.34924 -12.3021 -3.85659
upperneck 11.3252 -16.3641 2.8777
head 5.35639 -7.96575 0.264989
lclavicle -4.85035e-14 1.11319e-14 0
lhumerus -47.0338 -33.1591 116.9
lradius 57.4885 -0 0
lwrist 8.36583 0 0
lhand 2.63152 -1.33674 0.287681
lfingers 7.12502 -0 0
lthumb 28.0716 26.2067 0.170004
rclavicle -4.85035e-14 1.11319e-14 0
rhumerus -15.0447 39.7653 -78.7867
rradius 113.449 -0 0
rwrist -5.94277 0 0
rhand 2.20741 -13.8423 0.459466
rfingers 7.12502 -0 0
rthumb 27.6579 -41.2688 0.591181
511
root 5.98942 16.1236 -5.16354 -170.171 76.7583 -175.082
lfemur -26.0743 -14.4112 -22.3661
ltibia 56.2236 -0 0
lfoot -26.9078 -3.43256 -0.0943311
ltoes 6.16268 -0 0
rfemur -55.9849 5.64149 3.49568
rtibia 58.8613 -0 0
rfoot 10.439 9.49905 0.0116722
rtoes -22.053 0 0
lowerback 9.02185 0.252008 -0.215441
upperback 1.95306 0.62574 3.42823
thorax -3.06619 0.389725 3.62037
lowerneck -8.20673 -12.5326 -4.02647
upperneck 11.4432 -16.6704 3.01469
head 5.41043 -8.1111 0.303622
lclavicle -4.85035e-14 1.11319e-14 0
lhumerus -46.8243 -32.8299 116.738
lradius 57.675 -0 0
lwrist 8.97162 0 0
lhand 1.47386 -1.69257 0.323762
lfingers 7.12502 -0 0
lthumb 26.9612 25.9874 0.191316
rclavicle -4.85035e-14 1.11319e-14 0
rhumerus -12.8011 38.0896 -77.9681
rradius 114.901 -0 0
rwrist -8.59154 0 0
rhand 0.766498 -14.2988 0.517201
rfingers 7.12502 -0 0
rthumb 26.2743 -41.8805 0.665468
512
root 6.05161 16.0732 -5.10844 -170.791 75.4956 -175.65
lfemur -26.3182 -13.8285 -22.3656
ltibia 57.3191 -0 0
lfoot -27.1324 -2.89762 -0.102723
ltoes 5.26023 -0 0
rfemur -55.4687 5.40785 2.94757
rtibia 57.8057 -0 0
rfoot 10.6401 9.57296 0.0127099
rtoes -23.0397 0 0
lowerback 9.22506 0.303164 -0.0772358
upperback 2.12503 0.73755 3.65014
thorax -3.00825 0.451918 3.76233
lowerneck -8.06339 -12.7627 -4.19709
upperneck 11.5606 -16.977 3.15125
head 5.46439 -8.25649 0.342131
lclavicle -4.85035e-14 1.11319e-14 0
lhumerus -46.6166 -32.5002 116.579
lradius 57.8615 -0 0
lwrist 9.57741 0 0
lhand 0.315992 -2.04905 0.352646
lfingers 7.12502 -0 0
lthumb 25.8508 25.7678 0.208377
rclavicle -4.85035e-14 1.11319e-14 0
rhumerus -10.6372 36.3908 -77.2498
rradius 116.352 -0 0
rwrist -11.2403 0 0
rhand -0.674844 -14.7566 0.563438
rfingers 7.12502 -0 0
rthumb 24.89 -42.4938 0.72496
513
root 6.11379 16.0228 -5.05333 -171.316 74.2316 -176.122
lfemur -26.5616 -13.2458 -22.3675
ltibia 58.4147 -0 0
lfoot -27.357 -2.36266 -0.109018
ltoes 4.35777 -0 0
rfemur -54.9505 5.17915 2.39759
rtibia 56.7501 -0 0
rfoot 10.8411 9.64688 0.0134881
rtoes -24.0264 0 0
lowerback 9.42839 0.353829 0.0611505
upperback 2.29743 0.848692 3.8724
thorax -2.95015 0.513967 3.90436
lowerneck -7.91922 -12.9924 -4.36846
upperneck 11.6775 -17.2839 3.28737
head 5.51827 -8.40192 0.380515
lclavicle -4.85035e-14 1.11319e-14 0
lhumerus -46.4107 -32.17 116.422
lradius 58.048 -0 0
lwrist 10.1832 0 0
lhand -0.842033 -2.40604 0.374321
lfingers 7.12502 -0 0
lthumb 24.7403 25.5479 0.221178
rclavicle -4.85035e-14 1.11319e-14 0
rhumerus -8.54486 34.6719 -76.625
rradius 117.804 -0 0
rwrist -13.8891 0 0
rhand -2.11652 -15.2154 0.598143
rfingers 7.12502 -0 0
rthumb 23.5051 -43.1084 0.769616
514
root 6.17598 15.9725 -4.99823 -171.768 72.9667 -176.522
lfemur -26.8044 -12.6631 -22.372
ltibia 59.5102 -0 0
lfoot -27.5817 -1.82767 -0.113215
ltoes 3.45532 -0 0
rfemur -54.4302 4.95541 1.84574
rtibia 55.6946 -0 0
rfoot 11.0422 9.7208 0.014007
rtoes -25.0131 0 0
lowerback 9.63185 0.404002 0.199717
upperback 2.47027 0.959164 4.09499
thorax -2.8919 0.575872 4.04644
lowerneck -7.77421 -13.2216 -4.54058
upperneck 11.7938 -17.591 3.42307
head 5.57207 -8.54738 0.418776
lclavicle -4.85035e-14 1.11319e-14 0
lhumerus -46.2067 -31.8394 116.266
lradius 58.2345 -0 0
lwrist 10.789 0 0
lhand -2.00017 -2.76339 0.388776
lfingers 7.12502 -0 0
lthumb 23.6297 25.3278 0.229714
rclavicle -4.85035e-14 1.11319e-14 0
rhumerus -6.51681 32.9358 -76.0879
rradius 119.256 -0 0
rwrist -16.5379 0 0
rhand -3.55844 -15.675 0.621294
rfingers 7.12502 -0 0
rthumb 22.1198 -43.7239 0.799404
515
root 6.23816 15.9221 -4.94313 -172.161 71.7009 -176.862
lfemur -27.0466 -12.0804 -22.3791
ltibia 60.6057 -0 0
lfoot -27.8065 -1.29266 -0.115313
ltoes 2.55287 -0 0
rfemur -53.908 4.73669 1.29206
rtibia 54.639 -0 0
rfoot 11.2433 9.79472 0.0142664
rtoes -25.9998 0 0
lowerback 9.83543 0.453683 0.338461
upperback 2.64355 1.06896 4.31792
thorax -2.83349 0.637633 4.1886
lowerneck -7.62835 -13.4504 -4.71346
upperneck 11.9095 -17.8983 3.55834
head 5.62579 -8.69287 0.456913
lclavicle -4.85035e-14 1.11319e-14 0
lhumerus -46.0045 -31.5083 116.113
lradius 58.421 -0 0
lwrist 11.3948 0 0
lhand -3.15838 -3.12097 0.396005
lfingers 7.12502 -0 0
lthumb 22.5192 25.1076 0.233984
rclavicle -4.85035e-14 1.11319e-14 0
rhumerus -4.54615 31.1852 -75.6331
rradius 120.707 -0 0
rwrist -19.1867 0 0
rhand -5.0005 -16.135 0.632873
rfingers 7.12502 -0 0
rthumb 20.7342 -44.3399 0.814303
516
root 6.30035 15.8717 -4.88802 -172.508 70.4345 -177.156
lfemur -27.2885 -11.4978 -22.3886
ltibia 61.7012 -0 0
lfoot -28.0312 -0.757657 -0.115313
ltoes 1.65041 -0 0
rfemur -53.3839 4.52301 0.736568
rtibia 53.5834 -0 0
rfoot 11.4443 9.86865 0.0142664
rtoes -26.9864 0 0
lowerback 10.0391 0.50287 0.477382
upperback 2.81725 1.17809 4.54119
thorax -2.77493 0.699248 4.33081
lowerneck -7.48165 -13.6788 -4.8871
upperneck 12.0247 -18.206 3.6932
head 5.67944 -8.8384 0.494927
lclavicle -4.85035e-14 1.11319e-14 0
lhumerus -45.8039 -31.1768 115.961
lradius 58.6076 -0 0
lwrist 12.0006 0 0
lhand -4.31662 -3.47862 0.396005
lfingers 7.12502 -0 0
lthumb 21.4086 24.8873 0.233984
rclavicle -4.85035e-14 1.11319e-14 0
rhumerus -2.62651 29.4226 -75.2557
rradius 122.159 -0 0
rwrist -21.8354 0 0
rhand -6.4426 -16.5951 0.632873
rfingers 7.12502 -0 0
rthumb 19.3486 -44.9561 0.814303
517
root 6.36253 15.8213 -4.83292 -172.816 69.1676 -177.41
lfemur -27.53 -10.9152 -22.4006
ltibia 62.7967 -0 0
lfoot -28.256 -0.222654 -0.113215
ltoes 0.74796 -0 0
rfemur -52.8578 4.31442 0.179299
rtibia 52.5278 -0 0
rfoot 11.6454 9.94257 0.014007
rtoes -27.9731 0 0
lowerback 10.243 0.551564 0.616478
upperback 2.99139 1.28653 4.76481
thorax -2.71622 0.760717 4.47309
lowerneck -7.33408 -13.9068 -5.06152
upperneck 12.1393 -18.5139 3.82765
head 5.73301 -8.98396 0.532819
lclavicle -4.85035e-14 1.11319e-14 0
lhumerus -45.6052 -30.8448 115.812
lradius 58.7941 -0 0
lwrist 12.6064 0 0
lhand -5.47483 -3.8362 0.388776
lfingers 7.12502 -0 0
lthumb 20.2981 24.6671 0.229714
rclavicle -4.85035e-14 1.11319e-14 0
rhumerus -0.75194 27.6501 -74.9515
rradius 123.61 -0 0
rwrist -24.4842 0 0
rhand -7.88466 -17.0551 0.621294
rfingers 7.12502 -0 0
rthumb 17.9631 -45.5721 0.799404
518
root 6.42472 15.771 -4.77782 -173.092 67.9002 -177.633
lfemur -27.7711 -10.3327 -22.4151
ltibia 63.8922 -0 0
lfoot -28.4807 0.312335 -0.109018
ltoes -0.154493 0 0
rfemur -52.3299 4.11095 -0.379719
rtibia 51.4723 -0 0
rfoot 11.8465 10.0165 0.0134881
rtoes -28.9598 0 0
lowerback 10.4469 0.599761 0.755747
upperback 3.16596 1.3943 4.98876
thorax -2.65735 0.822041 4.61544
lowerneck -7.18566 -14.1343 -5.23671
upperneck 12.2534 -18.822 3.96168
head 5.7865 -9.12956 0.570587
lclavicle -4.85035e-14 1.11319e-14 0
lhumerus -45.4081 -30.5123 115.664
lradius 58.9806 -0 0
lwrist 13.2122 0 0
lhand -6.63297 -4.19355 0.374321
lfingers 7.12502 -0 0
lthumb 19.1875 24.447 0.221178
rclavicle -4.85035e-14 1.11319e-14 0
rhumerus 1.08306 25.8699 -74.7165
rradius 125.062 -0 0
rwrist -27.133 0 0
rhand -9.32658 -17.5147 0.598143
rfingers 7.12502 -0 0
rthumb 16.5778 -46.1876 0.769616
519
root 6.4869 15.7206 -4.72271 -173.341 66.6325 -177.829
lfemur -28.0119 -9.75019 -22.432
ltibia 64.9878 -0 0
lfoot -28.7053 0.847304 -0.102723
ltoes -1.05695 0 0
rfemur -51.8002 3.91263 -0.940455
rtibia 50.4167 -0 0
rfoot 12.0476 10.0904 0.0127099
rtoes -29.9465 0 0
lowerback 10.651 0.647463 0.895189
upperback 3.34095 1.50138 5.21304
thorax -2.59833 0.883218 4.75785
lowerneck -7.03637 -14.3614 -5.41269
upperneck 12.3669 -19.1304 4.09532
head 5.83992 -9.2752 0.608234
lclavicle -4.85035e-14 1.11319e-14 0
lhumerus -45.2126 -30.1795 115.518
lradius 59.1671 -0 0
lwrist 13.818 0 0
lhand -7.79099 -4.55054 0.352646
lfingers 7.12502 -0 0
lthumb 18.077 24.2271 0.208377
rclavicle -4.85035e-14 1.11319e-14 0
rhumerus 2.88364 24.0839 -74.5475
rradius 126.514 -0 0
rwrist -29.7818 0 0
rhand -10.7683 -17.9735 0.563438
rfingers 7.12502 -0 0
rthumb 15.1929 -46.8022 0.72496
520
root 6.54909 15.6702 -4.66761 -173.568 65.3645 -178.002
lfemur -28.2525 -9.16779 -22.4514
ltibia 66.0833 -0 0
lfoot -28.9299 1.38224 -0.0943311
ltoes -1.9594 0 0
rfemur -51.2686 3.71949 -1.50288
rtibia 49.3611 -0 0
rfoot 12.2486 10.1643 0.0116722
rtoes -30.9332 0 0
lowerback 10.8551 0.694668 1.0348
upperback 3.51637 1.60778 5.43767
thorax -2.53916 0.944248 4.90033
lowerneck -6.88621 -14.588 -5.58946
upperneck 12.4799 -19.439 4.22856
head 5.89326 -9.42087 0.645759
lclavicle -4.85035e-14 1.11319e-14 0
lhumerus -45.0188 -29.8462 115.374
lradius 59.3536 -0 0
lwrist 14.4237 0 0
lhand -8.94886 -4.90702 0.323762
lfingers 7.12502 -0 0
lthumb 16.9666 24.0075 0.191316
rclavicle -4.85035e-14 1.11319e-14 0
rhumerus 4.65461 22.2941 -74.4415
rradius 127.965 -0 0
rwrist -32.4305 0 0
rhand -12.2096 -18.4313 0.517201
rfingers 7.12502 -0 0
rthumb 13.8086 -47.4155 0.665468
521
root 6.61127 15.6199 -4.61251 -173.776 64.0962 -178.156
lfemur -28.493 -8.58548 -22.4733
ltibia 67.1788 -0 0
lfoot -29.1544 1.91715 -0.0838427
ltoes -2.86185 0 0
rfemur -50.7353 3.53159 -2.06695
rtibia 48.3056 -0 0
rfoot 12.4497 10.2382 0.0103752
rtoes -31.9199 0 0
lowerback 11.0594 0.741375 1.17458
upperback 3.69222 1.71348 5.66263
thorax -2.47984 1.00513 5.04288
lowerneck -6.73516 -14.8142 -5.76703
upperneck 12.5923 -19.7479 4.36141
head 5.94653 -9.56657 0.683162
lclavicle -4.85035e-14 1.11319e-14 0
lhumerus -44.8266 -29.5124 115.231
lradius 59.5401 -0 0
lwrist 15.0295 0 0
lhand -10.1065 -5.26285 0.287681
lfingers 7.12502 -0 0
lthumb 15.8562 23.7882 0.170004
rclavicle -4.85035e-14 1.11319e-14 0
rhumerus 6.40047 20.5021 -74.3958
rradius 129.417 -0 0
rwrist -35.0793 0 0
rhand -13.6505 -18.8878 0.459466
rfingers 7.12502 -0 0
rthumb 12.425 -48.0272 0.591181
